<svg width="132" height="115" viewBox="0 0 132 115" fill="none" xmlns="http://www.w3.org/2000/svg">
<g opacity="0.3">
<mask id="mask0_23_4" style="mask-type:alpha" maskUnits="userSpaceOnUse" x="0" y="0" width="11" height="11">
<path d="M5.22856 10.425C8.11612 10.425 10.4569 8.09121 10.4569 5.21245C10.4569 2.33368 8.11612 0 5.22856 0C2.34101 0 0.000183105 2.33368 0.000183105 5.21245C0.000183105 8.09121 2.34101 10.425 5.22856 10.425Z" fill="url(#paint0_linear_23_4)"/>
</mask>
<g mask="url(#mask0_23_4)">
<path d="M5.22856 10.425C8.11612 10.425 10.4569 8.09121 10.4569 5.21245C10.4569 2.33368 8.11612 0 5.22856 0C2.34101 0 0.000183105 2.33368 0.000183105 5.21245C0.000183105 8.09121 2.34101 10.425 5.22856 10.425Z" fill="url(#paint1_linear_23_4)"/>
</g>
<mask id="mask1_23_4" style="mask-type:alpha" maskUnits="userSpaceOnUse" x="30" y="0" width="11" height="11">
<path d="M35.5096 10.425C38.3972 10.425 40.738 8.09121 40.738 5.21245C40.738 2.33368 38.3972 0 35.5096 0C32.6221 0 30.2812 2.33368 30.2812 5.21245C30.2812 8.09121 32.6221 10.425 35.5096 10.425Z" fill="url(#paint2_linear_23_4)"/>
</mask>
<g mask="url(#mask1_23_4)">
<path d="M35.5096 10.425C38.3972 10.425 40.738 8.09121 40.738 5.21245C40.738 2.33368 38.3972 0 35.5096 0C32.6221 0 30.2812 2.33368 30.2812 5.21245C30.2812 8.09121 32.6221 10.425 35.5096 10.425Z" fill="url(#paint3_linear_23_4)"/>
</g>
<mask id="mask2_23_4" style="mask-type:alpha" maskUnits="userSpaceOnUse" x="60" y="0" width="12" height="11">
<path d="M65.7907 10.425C68.6783 10.425 71.0191 8.09121 71.0191 5.21245C71.0191 2.33368 68.6783 0 65.7907 0C62.9031 0 60.5623 2.33368 60.5623 5.21245C60.5623 8.09121 62.9031 10.425 65.7907 10.425Z" fill="url(#paint4_linear_23_4)"/>
</mask>
<g mask="url(#mask2_23_4)">
<path d="M65.7907 10.425C68.6783 10.425 71.0191 8.09121 71.0191 5.21245C71.0191 2.33368 68.6783 0 65.7907 0C62.9031 0 60.5623 2.33368 60.5623 5.21245C60.5623 8.09121 62.9031 10.425 65.7907 10.425Z" fill="url(#paint5_linear_23_4)"/>
</g>
<mask id="mask3_23_4" style="mask-type:alpha" maskUnits="userSpaceOnUse" x="90" y="0" width="12" height="11">
<path d="M96.0718 10.425C98.9593 10.425 101.3 8.09121 101.3 5.21245C101.3 2.33368 98.9593 0 96.0718 0C93.1842 0 90.8434 2.33368 90.8434 5.21245C90.8434 8.09121 93.1842 10.425 96.0718 10.425Z" fill="url(#paint6_linear_23_4)"/>
</mask>
<g mask="url(#mask3_23_4)">
<path d="M96.0718 10.425C98.9593 10.425 101.3 8.09121 101.3 5.21245C101.3 2.33368 98.9593 0 96.0718 0C93.1842 0 90.8434 2.33368 90.8434 5.21245C90.8434 8.09121 93.1842 10.425 96.0718 10.425Z" fill="url(#paint7_linear_23_4)"/>
</g>
<mask id="mask4_23_4" style="mask-type:alpha" maskUnits="userSpaceOnUse" x="121" y="0" width="11" height="11">
<path d="M126.353 10.425C129.24 10.425 131.581 8.09121 131.581 5.21245C131.581 2.33368 129.24 0 126.353 0C123.465 0 121.124 2.33368 121.124 5.21245C121.124 8.09121 123.465 10.425 126.353 10.425Z" fill="url(#paint8_linear_23_4)"/>
</mask>
<g mask="url(#mask4_23_4)">
<path d="M126.353 10.425C129.24 10.425 131.581 8.09121 131.581 5.21245C131.581 2.33368 129.24 0 126.353 0C123.465 0 121.124 2.33368 121.124 5.21245C121.124 8.09121 123.465 10.425 126.353 10.425Z" fill="url(#paint9_linear_23_4)"/>
</g>
<mask id="mask5_23_4" style="mask-type:alpha" maskUnits="userSpaceOnUse" x="0" y="26" width="11" height="11">
<path d="M5.22856 36.5958C8.11612 36.5958 10.4569 34.2621 10.4569 31.3833C10.4569 28.5046 8.11612 26.1709 5.22856 26.1709C2.34101 26.1709 0.000183105 28.5046 0.000183105 31.3833C0.000183105 34.2621 2.34101 36.5958 5.22856 36.5958Z" fill="url(#paint10_linear_23_4)"/>
</mask>
<g mask="url(#mask5_23_4)">
<path d="M5.22856 36.5958C8.11612 36.5958 10.4569 34.2621 10.4569 31.3833C10.4569 28.5046 8.11612 26.1709 5.22856 26.1709C2.34101 26.1709 0.000183105 28.5046 0.000183105 31.3833C0.000183105 34.2621 2.34101 36.5958 5.22856 36.5958Z" fill="url(#paint11_linear_23_4)"/>
</g>
<mask id="mask6_23_4" style="mask-type:alpha" maskUnits="userSpaceOnUse" x="30" y="26" width="11" height="11">
<path d="M35.5096 36.5958C38.3972 36.5958 40.738 34.2621 40.738 31.3833C40.738 28.5046 38.3972 26.1709 35.5096 26.1709C32.6221 26.1709 30.2812 28.5046 30.2812 31.3833C30.2812 34.2621 32.6221 36.5958 35.5096 36.5958Z" fill="url(#paint12_linear_23_4)"/>
</mask>
<g mask="url(#mask6_23_4)">
<path d="M35.5096 36.5958C38.3972 36.5958 40.738 34.2621 40.738 31.3833C40.738 28.5046 38.3972 26.1709 35.5096 26.1709C32.6221 26.1709 30.2812 28.5046 30.2812 31.3833C30.2812 34.2621 32.6221 36.5958 35.5096 36.5958Z" fill="url(#paint13_linear_23_4)"/>
</g>
<mask id="mask7_23_4" style="mask-type:alpha" maskUnits="userSpaceOnUse" x="60" y="26" width="12" height="11">
<path d="M65.7907 36.5958C68.6783 36.5958 71.0191 34.2621 71.0191 31.3833C71.0191 28.5046 68.6783 26.1709 65.7907 26.1709C62.9031 26.1709 60.5623 28.5046 60.5623 31.3833C60.5623 34.2621 62.9031 36.5958 65.7907 36.5958Z" fill="url(#paint14_linear_23_4)"/>
</mask>
<g mask="url(#mask7_23_4)">
<path d="M65.7907 36.5958C68.6783 36.5958 71.0191 34.2621 71.0191 31.3833C71.0191 28.5046 68.6783 26.1709 65.7907 26.1709C62.9031 26.1709 60.5623 28.5046 60.5623 31.3833C60.5623 34.2621 62.9031 36.5958 65.7907 36.5958Z" fill="url(#paint15_linear_23_4)"/>
</g>
<mask id="mask8_23_4" style="mask-type:alpha" maskUnits="userSpaceOnUse" x="90" y="26" width="12" height="11">
<path d="M96.0718 36.5958C98.9593 36.5958 101.3 34.2621 101.3 31.3833C101.3 28.5046 98.9593 26.1709 96.0718 26.1709C93.1842 26.1709 90.8434 28.5046 90.8434 31.3833C90.8434 34.2621 93.1842 36.5958 96.0718 36.5958Z" fill="url(#paint16_linear_23_4)"/>
</mask>
<g mask="url(#mask8_23_4)">
<path d="M96.0718 36.5958C98.9593 36.5958 101.3 34.2621 101.3 31.3833C101.3 28.5046 98.9593 26.1709 96.0718 26.1709C93.1842 26.1709 90.8434 28.5046 90.8434 31.3833C90.8434 34.2621 93.1842 36.5958 96.0718 36.5958Z" fill="url(#paint17_linear_23_4)"/>
</g>
<mask id="mask9_23_4" style="mask-type:alpha" maskUnits="userSpaceOnUse" x="121" y="26" width="11" height="11">
<path d="M126.353 36.5958C129.24 36.5958 131.581 34.2621 131.581 31.3833C131.581 28.5046 129.24 26.1709 126.353 26.1709C123.465 26.1709 121.124 28.5046 121.124 31.3833C121.124 34.2621 123.465 36.5958 126.353 36.5958Z" fill="url(#paint18_linear_23_4)"/>
</mask>
<g mask="url(#mask9_23_4)">
<path d="M126.353 36.5958C129.24 36.5958 131.581 34.2621 131.581 31.3833C131.581 28.5046 129.24 26.1709 126.353 26.1709C123.465 26.1709 121.124 28.5046 121.124 31.3833C121.124 34.2621 123.465 36.5958 126.353 36.5958Z" fill="url(#paint19_linear_23_4)"/>
</g>
<mask id="mask10_23_4" style="mask-type:alpha" maskUnits="userSpaceOnUse" x="0" y="52" width="11" height="11">
<path d="M5.22856 62.7124C8.11612 62.7124 10.4569 60.3787 10.4569 57.5C10.4569 54.6212 8.11612 52.2875 5.22856 52.2875C2.34101 52.2875 0.000183105 54.6212 0.000183105 57.5C0.000183105 60.3787 2.34101 62.7124 5.22856 62.7124Z" fill="url(#paint20_linear_23_4)"/>
</mask>
<g mask="url(#mask10_23_4)">
<path d="M5.22856 62.7124C8.11612 62.7124 10.4569 60.3787 10.4569 57.5C10.4569 54.6212 8.11612 52.2875 5.22856 52.2875C2.34101 52.2875 0.000183105 54.6212 0.000183105 57.5C0.000183105 60.3787 2.34101 62.7124 5.22856 62.7124Z" fill="url(#paint21_linear_23_4)"/>
</g>
<mask id="mask11_23_4" style="mask-type:alpha" maskUnits="userSpaceOnUse" x="30" y="52" width="11" height="11">
<path d="M35.5096 62.7124C38.3972 62.7124 40.738 60.3787 40.738 57.5C40.738 54.6212 38.3972 52.2875 35.5096 52.2875C32.6221 52.2875 30.2812 54.6212 30.2812 57.5C30.2812 60.3787 32.6221 62.7124 35.5096 62.7124Z" fill="url(#paint22_linear_23_4)"/>
</mask>
<g mask="url(#mask11_23_4)">
<path d="M35.5096 62.7124C38.3972 62.7124 40.738 60.3787 40.738 57.5C40.738 54.6212 38.3972 52.2875 35.5096 52.2875C32.6221 52.2875 30.2812 54.6212 30.2812 57.5C30.2812 60.3787 32.6221 62.7124 35.5096 62.7124Z" fill="url(#paint23_linear_23_4)"/>
</g>
<mask id="mask12_23_4" style="mask-type:alpha" maskUnits="userSpaceOnUse" x="60" y="52" width="12" height="11">
<path d="M65.7907 62.7124C68.6783 62.7124 71.0191 60.3787 71.0191 57.5C71.0191 54.6212 68.6783 52.2875 65.7907 52.2875C62.9031 52.2875 60.5623 54.6212 60.5623 57.5C60.5623 60.3787 62.9031 62.7124 65.7907 62.7124Z" fill="url(#paint24_linear_23_4)"/>
</mask>
<g mask="url(#mask12_23_4)">
<path d="M65.7907 62.7124C68.6783 62.7124 71.0191 60.3787 71.0191 57.5C71.0191 54.6212 68.6783 52.2875 65.7907 52.2875C62.9031 52.2875 60.5623 54.6212 60.5623 57.5C60.5623 60.3787 62.9031 62.7124 65.7907 62.7124Z" fill="url(#paint25_linear_23_4)"/>
</g>
<mask id="mask13_23_4" style="mask-type:alpha" maskUnits="userSpaceOnUse" x="90" y="52" width="12" height="11">
<path d="M96.0718 62.7124C98.9593 62.7124 101.3 60.3787 101.3 57.5C101.3 54.6212 98.9593 52.2875 96.0718 52.2875C93.1842 52.2875 90.8434 54.6212 90.8434 57.5C90.8434 60.3787 93.1842 62.7124 96.0718 62.7124Z" fill="url(#paint26_linear_23_4)"/>
</mask>
<g mask="url(#mask13_23_4)">
<path d="M96.0718 62.7124C98.9593 62.7124 101.3 60.3787 101.3 57.5C101.3 54.6212 98.9593 52.2875 96.0718 52.2875C93.1842 52.2875 90.8434 54.6212 90.8434 57.5C90.8434 60.3787 93.1842 62.7124 96.0718 62.7124Z" fill="url(#paint27_linear_23_4)"/>
</g>
<mask id="mask14_23_4" style="mask-type:alpha" maskUnits="userSpaceOnUse" x="121" y="52" width="11" height="11">
<path d="M126.353 62.7124C129.24 62.7124 131.581 60.3787 131.581 57.5C131.581 54.6212 129.24 52.2875 126.353 52.2875C123.465 52.2875 121.124 54.6212 121.124 57.5C121.124 60.3787 123.465 62.7124 126.353 62.7124Z" fill="url(#paint28_linear_23_4)"/>
</mask>
<g mask="url(#mask14_23_4)">
<path d="M126.353 62.7124C129.24 62.7124 131.581 60.3787 131.581 57.5C131.581 54.6212 129.24 52.2875 126.353 52.2875C123.465 52.2875 121.124 54.6212 121.124 57.5C121.124 60.3787 123.465 62.7124 126.353 62.7124Z" fill="url(#paint29_linear_23_4)"/>
</g>
<mask id="mask15_23_4" style="mask-type:alpha" maskUnits="userSpaceOnUse" x="0" y="78" width="11" height="11">
<path d="M5.22856 88.8833C8.11612 88.8833 10.4569 86.5496 10.4569 83.6708C10.4569 80.7921 8.11612 78.4584 5.22856 78.4584C2.34101 78.4584 0.000183105 80.7921 0.000183105 83.6708C0.000183105 86.5496 2.34101 88.8833 5.22856 88.8833Z" fill="url(#paint30_linear_23_4)"/>
</mask>
<g mask="url(#mask15_23_4)">
<path d="M5.22856 88.8833C8.11612 88.8833 10.4569 86.5496 10.4569 83.6708C10.4569 80.7921 8.11612 78.4584 5.22856 78.4584C2.34101 78.4584 0.000183105 80.7921 0.000183105 83.6708C0.000183105 86.5496 2.34101 88.8833 5.22856 88.8833Z" fill="url(#paint31_linear_23_4)"/>
</g>
<mask id="mask16_23_4" style="mask-type:alpha" maskUnits="userSpaceOnUse" x="30" y="78" width="11" height="11">
<path d="M35.5096 88.8833C38.3972 88.8833 40.738 86.5496 40.738 83.6708C40.738 80.7921 38.3972 78.4584 35.5096 78.4584C32.6221 78.4584 30.2812 80.7921 30.2812 83.6708C30.2812 86.5496 32.6221 88.8833 35.5096 88.8833Z" fill="url(#paint32_linear_23_4)"/>
</mask>
<g mask="url(#mask16_23_4)">
<path d="M35.5096 88.8833C38.3972 88.8833 40.738 86.5496 40.738 83.6708C40.738 80.7921 38.3972 78.4584 35.5096 78.4584C32.6221 78.4584 30.2812 80.7921 30.2812 83.6708C30.2812 86.5496 32.6221 88.8833 35.5096 88.8833Z" fill="url(#paint33_linear_23_4)"/>
</g>
<mask id="mask17_23_4" style="mask-type:alpha" maskUnits="userSpaceOnUse" x="60" y="78" width="12" height="11">
<path d="M65.7907 88.8833C68.6783 88.8833 71.0191 86.5496 71.0191 83.6708C71.0191 80.7921 68.6783 78.4584 65.7907 78.4584C62.9031 78.4584 60.5623 80.7921 60.5623 83.6708C60.5623 86.5496 62.9031 88.8833 65.7907 88.8833Z" fill="url(#paint34_linear_23_4)"/>
</mask>
<g mask="url(#mask17_23_4)">
<path d="M65.7907 88.8833C68.6783 88.8833 71.0191 86.5496 71.0191 83.6708C71.0191 80.7921 68.6783 78.4584 65.7907 78.4584C62.9031 78.4584 60.5623 80.7921 60.5623 83.6708C60.5623 86.5496 62.9031 88.8833 65.7907 88.8833Z" fill="url(#paint35_linear_23_4)"/>
</g>
<mask id="mask18_23_4" style="mask-type:alpha" maskUnits="userSpaceOnUse" x="90" y="78" width="12" height="11">
<path d="M96.0718 88.8833C98.9593 88.8833 101.3 86.5496 101.3 83.6708C101.3 80.7921 98.9593 78.4584 96.0718 78.4584C93.1842 78.4584 90.8434 80.7921 90.8434 83.6708C90.8434 86.5496 93.1842 88.8833 96.0718 88.8833Z" fill="url(#paint36_linear_23_4)"/>
</mask>
<g mask="url(#mask18_23_4)">
<path d="M96.0718 88.8833C98.9593 88.8833 101.3 86.5496 101.3 83.6708C101.3 80.7921 98.9593 78.4584 96.0718 78.4584C93.1842 78.4584 90.8434 80.7921 90.8434 83.6708C90.8434 86.5496 93.1842 88.8833 96.0718 88.8833Z" fill="url(#paint37_linear_23_4)"/>
</g>
<mask id="mask19_23_4" style="mask-type:alpha" maskUnits="userSpaceOnUse" x="0" y="104" width="11" height="11">
<path d="M5.22856 115C8.11612 115 10.4569 112.666 10.4569 109.788C10.4569 106.909 8.11612 104.575 5.22856 104.575C2.34101 104.575 0.000183105 106.909 0.000183105 109.788C0.000183105 112.666 2.34101 115 5.22856 115Z" fill="url(#paint38_linear_23_4)"/>
</mask>
<g mask="url(#mask19_23_4)">
<path d="M5.22856 115C8.11612 115 10.4569 112.666 10.4569 109.788C10.4569 106.909 8.11612 104.575 5.22856 104.575C2.34101 104.575 0.000183105 106.909 0.000183105 109.788C0.000183105 112.666 2.34101 115 5.22856 115Z" fill="url(#paint39_linear_23_4)"/>
</g>
<mask id="mask20_23_4" style="mask-type:alpha" maskUnits="userSpaceOnUse" x="30" y="104" width="11" height="11">
<path d="M35.5096 115C38.3972 115 40.738 112.666 40.738 109.788C40.738 106.909 38.3972 104.575 35.5096 104.575C32.6221 104.575 30.2812 106.909 30.2812 109.788C30.2812 112.666 32.6221 115 35.5096 115Z" fill="url(#paint40_linear_23_4)"/>
</mask>
<g mask="url(#mask20_23_4)">
<path d="M35.5096 115C38.3972 115 40.738 112.666 40.738 109.788C40.738 106.909 38.3972 104.575 35.5096 104.575C32.6221 104.575 30.2812 106.909 30.2812 109.788C30.2812 112.666 32.6221 115 35.5096 115Z" fill="url(#paint41_linear_23_4)"/>
</g>
<mask id="mask21_23_4" style="mask-type:alpha" maskUnits="userSpaceOnUse" x="60" y="104" width="12" height="11">
<path d="M65.7907 115C68.6783 115 71.0191 112.666 71.0191 109.788C71.0191 106.909 68.6783 104.575 65.7907 104.575C62.9031 104.575 60.5623 106.909 60.5623 109.788C60.5623 112.666 62.9031 115 65.7907 115Z" fill="url(#paint42_linear_23_4)"/>
</mask>
<g mask="url(#mask21_23_4)">
<path d="M65.7907 115C68.6783 115 71.0191 112.666 71.0191 109.788C71.0191 106.909 68.6783 104.575 65.7907 104.575C62.9031 104.575 60.5623 106.909 60.5623 109.788C60.5623 112.666 62.9031 115 65.7907 115Z" fill="url(#paint43_linear_23_4)"/>
</g>
<mask id="mask22_23_4" style="mask-type:alpha" maskUnits="userSpaceOnUse" x="90" y="104" width="12" height="11">
<path d="M96.0718 115C98.9593 115 101.3 112.666 101.3 109.788C101.3 106.909 98.9593 104.575 96.0718 104.575C93.1842 104.575 90.8434 106.909 90.8434 109.788C90.8434 112.666 93.1842 115 96.0718 115Z" fill="url(#paint44_linear_23_4)"/>
</mask>
<g mask="url(#mask22_23_4)">
<path d="M96.0718 115C98.9593 115 101.3 112.666 101.3 109.788C101.3 106.909 98.9593 104.575 96.0718 104.575C93.1842 104.575 90.8434 106.909 90.8434 109.788C90.8434 112.666 93.1842 115 96.0718 115Z" fill="url(#paint45_linear_23_4)"/>
</g>
<mask id="mask23_23_4" style="mask-type:alpha" maskUnits="userSpaceOnUse" x="121" y="104" width="11" height="11">
<path d="M126.353 115C129.24 115 131.581 112.666 131.581 109.788C131.581 106.909 129.24 104.575 126.353 104.575C123.465 104.575 121.124 106.909 121.124 109.788C121.124 112.666 123.465 115 126.353 115Z" fill="url(#paint46_linear_23_4)"/>
</mask>
<g mask="url(#mask23_23_4)">
<path d="M126.353 115C129.24 115 131.581 112.666 131.581 109.788C131.581 106.909 129.24 104.575 126.353 104.575C123.465 104.575 121.124 106.909 121.124 109.788C121.124 112.666 123.465 115 126.353 115Z" fill="url(#paint47_linear_23_4)"/>
</g>
</g>
<defs>
<linearGradient id="paint0_linear_23_4" x1="54.9962" y1="131.134" x2="-16.4055" y2="-50.67" gradientUnits="userSpaceOnUse">
<stop/>
<stop offset="1" stop-color="white"/>
</linearGradient>
<linearGradient id="paint1_linear_23_4" x1="54.9962" y1="131.134" x2="-16.4055" y2="-50.67" gradientUnits="userSpaceOnUse">
<stop stop-color="#97C3F9"/>
<stop offset="1" stop-color="#93C1F9"/>
</linearGradient>
<linearGradient id="paint2_linear_23_4" x1="81.2007" y1="120.843" x2="9.79907" y2="-60.9613" gradientUnits="userSpaceOnUse">
<stop/>
<stop offset="1" stop-color="white"/>
</linearGradient>
<linearGradient id="paint3_linear_23_4" x1="81.2007" y1="120.843" x2="9.79907" y2="-60.9613" gradientUnits="userSpaceOnUse">
<stop stop-color="#97C3F9"/>
<stop offset="1" stop-color="#93C1F9"/>
</linearGradient>
<linearGradient id="paint4_linear_23_4" x1="107.405" y1="110.551" x2="36.0035" y2="-71.2526" gradientUnits="userSpaceOnUse">
<stop/>
<stop offset="1" stop-color="white"/>
</linearGradient>
<linearGradient id="paint5_linear_23_4" x1="107.405" y1="110.551" x2="36.0035" y2="-71.2526" gradientUnits="userSpaceOnUse">
<stop stop-color="#97C3F9"/>
<stop offset="1" stop-color="#93C1F9"/>
</linearGradient>
<linearGradient id="paint6_linear_23_4" x1="133.609" y1="100.259" x2="62.2077" y2="-81.5444" gradientUnits="userSpaceOnUse">
<stop/>
<stop offset="1" stop-color="white"/>
</linearGradient>
<linearGradient id="paint7_linear_23_4" x1="133.609" y1="100.259" x2="62.2077" y2="-81.5444" gradientUnits="userSpaceOnUse">
<stop stop-color="#97C3F9"/>
<stop offset="1" stop-color="#93C1F9"/>
</linearGradient>
<linearGradient id="paint8_linear_23_4" x1="159.814" y1="89.9679" x2="88.412" y2="-91.8359" gradientUnits="userSpaceOnUse">
<stop/>
<stop offset="1" stop-color="white"/>
</linearGradient>
<linearGradient id="paint9_linear_23_4" x1="159.814" y1="89.9679" x2="88.412" y2="-91.8359" gradientUnits="userSpaceOnUse">
<stop stop-color="#97C3F9"/>
<stop offset="1" stop-color="#93C1F9"/>
</linearGradient>
<linearGradient id="paint10_linear_23_4" x1="46.054" y1="134.645" x2="-25.3464" y2="-47.1572" gradientUnits="userSpaceOnUse">
<stop/>
<stop offset="1" stop-color="white"/>
</linearGradient>
<linearGradient id="paint11_linear_23_4" x1="46.054" y1="134.645" x2="-25.3464" y2="-47.1572" gradientUnits="userSpaceOnUse">
<stop stop-color="#97C3F9"/>
<stop offset="1" stop-color="#93C1F9"/>
</linearGradient>
<linearGradient id="paint12_linear_23_4" x1="72.2583" y1="124.354" x2="0.857901" y2="-57.4491" gradientUnits="userSpaceOnUse">
<stop/>
<stop offset="1" stop-color="white"/>
</linearGradient>
<linearGradient id="paint13_linear_23_4" x1="72.2583" y1="124.354" x2="0.857901" y2="-57.4491" gradientUnits="userSpaceOnUse">
<stop stop-color="#97C3F9"/>
<stop offset="1" stop-color="#93C1F9"/>
</linearGradient>
<linearGradient id="paint14_linear_23_4" x1="98.4626" y1="114.062" x2="27.0622" y2="-67.7404" gradientUnits="userSpaceOnUse">
<stop/>
<stop offset="1" stop-color="white"/>
</linearGradient>
<linearGradient id="paint15_linear_23_4" x1="98.4626" y1="114.062" x2="27.0622" y2="-67.7404" gradientUnits="userSpaceOnUse">
<stop stop-color="#97C3F9"/>
<stop offset="1" stop-color="#93C1F9"/>
</linearGradient>
<linearGradient id="paint16_linear_23_4" x1="124.667" y1="103.771" x2="53.2665" y2="-78.0318" gradientUnits="userSpaceOnUse">
<stop/>
<stop offset="1" stop-color="white"/>
</linearGradient>
<linearGradient id="paint17_linear_23_4" x1="124.667" y1="103.771" x2="53.2665" y2="-78.0318" gradientUnits="userSpaceOnUse">
<stop stop-color="#97C3F9"/>
<stop offset="1" stop-color="#93C1F9"/>
</linearGradient>
<linearGradient id="paint18_linear_23_4" x1="150.871" y1="93.4793" x2="79.4709" y2="-88.3232" gradientUnits="userSpaceOnUse">
<stop/>
<stop offset="1" stop-color="white"/>
</linearGradient>
<linearGradient id="paint19_linear_23_4" x1="150.871" y1="93.4793" x2="79.4709" y2="-88.3232" gradientUnits="userSpaceOnUse">
<stop stop-color="#97C3F9"/>
<stop offset="1" stop-color="#93C1F9"/>
</linearGradient>
<linearGradient id="paint20_linear_23_4" x1="37.1115" y1="138.158" x2="-34.2902" y2="-43.6458" gradientUnits="userSpaceOnUse">
<stop/>
<stop offset="1" stop-color="white"/>
</linearGradient>
<linearGradient id="paint21_linear_23_4" x1="37.1115" y1="138.158" x2="-34.2902" y2="-43.6458" gradientUnits="userSpaceOnUse">
<stop stop-color="#97C3F9"/>
<stop offset="1" stop-color="#93C1F9"/>
</linearGradient>
<linearGradient id="paint22_linear_23_4" x1="63.3159" y1="127.866" x2="-8.08572" y2="-53.9374" gradientUnits="userSpaceOnUse">
<stop/>
<stop offset="1" stop-color="white"/>
</linearGradient>
<linearGradient id="paint23_linear_23_4" x1="63.3159" y1="127.866" x2="-8.08572" y2="-53.9374" gradientUnits="userSpaceOnUse">
<stop stop-color="#97C3F9"/>
<stop offset="1" stop-color="#93C1F9"/>
</linearGradient>
<linearGradient id="paint24_linear_23_4" x1="89.5202" y1="117.575" x2="18.1187" y2="-64.2288" gradientUnits="userSpaceOnUse">
<stop/>
<stop offset="1" stop-color="white"/>
</linearGradient>
<linearGradient id="paint25_linear_23_4" x1="89.5202" y1="117.575" x2="18.1187" y2="-64.2288" gradientUnits="userSpaceOnUse">
<stop stop-color="#97C3F9"/>
<stop offset="1" stop-color="#93C1F9"/>
</linearGradient>
<linearGradient id="paint26_linear_23_4" x1="115.725" y1="107.283" x2="44.3229" y2="-74.5205" gradientUnits="userSpaceOnUse">
<stop/>
<stop offset="1" stop-color="white"/>
</linearGradient>
<linearGradient id="paint27_linear_23_4" x1="115.725" y1="107.283" x2="44.3229" y2="-74.5205" gradientUnits="userSpaceOnUse">
<stop stop-color="#97C3F9"/>
<stop offset="1" stop-color="#93C1F9"/>
</linearGradient>
<linearGradient id="paint28_linear_23_4" x1="141.929" y1="96.9919" x2="70.5272" y2="-84.812" gradientUnits="userSpaceOnUse">
<stop/>
<stop offset="1" stop-color="white"/>
</linearGradient>
<linearGradient id="paint29_linear_23_4" x1="141.929" y1="96.9919" x2="70.5272" y2="-84.812" gradientUnits="userSpaceOnUse">
<stop stop-color="#97C3F9"/>
<stop offset="1" stop-color="#93C1F9"/>
</linearGradient>
<linearGradient id="paint30_linear_23_4" x1="28.1691" y1="141.67" x2="-43.2326" y2="-40.1339" gradientUnits="userSpaceOnUse">
<stop/>
<stop offset="1" stop-color="white"/>
</linearGradient>
<linearGradient id="paint31_linear_23_4" x1="28.1691" y1="141.67" x2="-43.2326" y2="-40.1339" gradientUnits="userSpaceOnUse">
<stop stop-color="#97C3F9"/>
<stop offset="1" stop-color="#93C1F9"/>
</linearGradient>
<linearGradient id="paint32_linear_23_4" x1="54.3736" y1="131.378" x2="-17.0281" y2="-50.4254" gradientUnits="userSpaceOnUse">
<stop/>
<stop offset="1" stop-color="white"/>
</linearGradient>
<linearGradient id="paint33_linear_23_4" x1="54.3736" y1="131.378" x2="-17.0281" y2="-50.4254" gradientUnits="userSpaceOnUse">
<stop stop-color="#97C3F9"/>
<stop offset="1" stop-color="#93C1F9"/>
</linearGradient>
<linearGradient id="paint34_linear_23_4" x1="80.5778" y1="121.087" x2="9.17628" y2="-60.7168" gradientUnits="userSpaceOnUse">
<stop/>
<stop offset="1" stop-color="white"/>
</linearGradient>
<linearGradient id="paint35_linear_23_4" x1="80.5778" y1="121.087" x2="9.17628" y2="-60.7168" gradientUnits="userSpaceOnUse">
<stop stop-color="#97C3F9"/>
<stop offset="1" stop-color="#93C1F9"/>
</linearGradient>
<linearGradient id="paint36_linear_23_4" x1="106.782" y1="110.795" x2="35.3806" y2="-71.0085" gradientUnits="userSpaceOnUse">
<stop/>
<stop offset="1" stop-color="white"/>
</linearGradient>
<linearGradient id="paint37_linear_23_4" x1="106.782" y1="110.795" x2="35.3806" y2="-71.0085" gradientUnits="userSpaceOnUse">
<stop stop-color="#97C3F9"/>
<stop offset="1" stop-color="#93C1F9"/>
</linearGradient>
<linearGradient id="paint38_linear_23_4" x1="19.2267" y1="145.182" x2="-52.1749" y2="-36.6218" gradientUnits="userSpaceOnUse">
<stop/>
<stop offset="1" stop-color="white"/>
</linearGradient>
<linearGradient id="paint39_linear_23_4" x1="19.2267" y1="145.182" x2="-52.1749" y2="-36.6218" gradientUnits="userSpaceOnUse">
<stop stop-color="#97C3F9"/>
<stop offset="1" stop-color="#93C1F9"/>
</linearGradient>
<linearGradient id="paint40_linear_23_4" x1="45.4312" y1="134.89" x2="-25.9705" y2="-46.9133" gradientUnits="userSpaceOnUse">
<stop/>
<stop offset="1" stop-color="white"/>
</linearGradient>
<linearGradient id="paint41_linear_23_4" x1="45.4312" y1="134.89" x2="-25.9705" y2="-46.9133" gradientUnits="userSpaceOnUse">
<stop stop-color="#97C3F9"/>
<stop offset="1" stop-color="#93C1F9"/>
</linearGradient>
<linearGradient id="paint42_linear_23_4" x1="71.6355" y1="124.599" x2="0.233932" y2="-57.2047" gradientUnits="userSpaceOnUse">
<stop/>
<stop offset="1" stop-color="white"/>
</linearGradient>
<linearGradient id="paint43_linear_23_4" x1="71.6355" y1="124.599" x2="0.233932" y2="-57.2047" gradientUnits="userSpaceOnUse">
<stop stop-color="#97C3F9"/>
<stop offset="1" stop-color="#93C1F9"/>
</linearGradient>
<linearGradient id="paint44_linear_23_4" x1="97.8398" y1="114.307" x2="26.4382" y2="-67.4963" gradientUnits="userSpaceOnUse">
<stop/>
<stop offset="1" stop-color="white"/>
</linearGradient>
<linearGradient id="paint45_linear_23_4" x1="97.8398" y1="114.307" x2="26.4382" y2="-67.4963" gradientUnits="userSpaceOnUse">
<stop stop-color="#97C3F9"/>
<stop offset="1" stop-color="#93C1F9"/>
</linearGradient>
<linearGradient id="paint46_linear_23_4" x1="124.044" y1="104.016" x2="52.6426" y2="-77.7878" gradientUnits="userSpaceOnUse">
<stop/>
<stop offset="1" stop-color="white"/>
</linearGradient>
<linearGradient id="paint47_linear_23_4" x1="124.044" y1="104.016" x2="52.6426" y2="-77.7878" gradientUnits="userSpaceOnUse">
<stop stop-color="#97C3F9"/>
<stop offset="1" stop-color="#93C1F9"/>
</linearGradient>
</defs>
</svg>
