<svg width="1514" height="968" viewBox="0 0 1514 968" fill="none" xmlns="http://www.w3.org/2000/svg">
<path d="M-50.9533 356.268C10.423 285.781 131.629 376.97 307.25 337.061C459.359 302.479 468.11 210.622 589.642 215.177C678.431 218.487 775.183 269.755 828.356 359.072C886.997 457.551 865.68 557.81 859.696 582.139C832.983 691.263 753.698 748.826 725.728 768.487C610.488 849.44 481.173 835.254 419.136 828.479C186.1 802.957 -63.3861 636.583 -74.4947 455.701C-75.971 432.02 -78.658 388.098 -50.9533 356.268Z" fill="url(#paint0_linear_23249_3)"/>
<g opacity="0.3">
<mask id="mask0_23249_3" style="mask-type:alpha" maskUnits="userSpaceOnUse" x="1382" y="546" width="11" height="11">
<path d="M1387.23 556.425C1390.12 556.425 1392.46 554.091 1392.46 551.212C1392.46 548.334 1390.12 546 1387.23 546C1384.34 546 1382 548.334 1382 551.212C1382 554.091 1384.34 556.425 1387.23 556.425Z" fill="url(#paint1_linear_23249_3)"/>
</mask>
<g mask="url(#mask0_23249_3)">
<path d="M1387.23 556.425C1390.12 556.425 1392.46 554.091 1392.46 551.212C1392.46 548.334 1390.12 546 1387.23 546C1384.34 546 1382 548.334 1382 551.212C1382 554.091 1384.34 556.425 1387.23 556.425Z" fill="url(#paint2_linear_23249_3)"/>
</g>
<mask id="mask1_23249_3" style="mask-type:alpha" maskUnits="userSpaceOnUse" x="1412" y="546" width="11" height="11">
<path d="M1417.51 556.425C1420.4 556.425 1422.74 554.091 1422.74 551.212C1422.74 548.334 1420.4 546 1417.51 546C1414.62 546 1412.28 548.334 1412.28 551.212C1412.28 554.091 1414.62 556.425 1417.51 556.425Z" fill="url(#paint3_linear_23249_3)"/>
</mask>
<g mask="url(#mask1_23249_3)">
<path d="M1417.51 556.425C1420.4 556.425 1422.74 554.091 1422.74 551.212C1422.74 548.334 1420.4 546 1417.51 546C1414.62 546 1412.28 548.334 1412.28 551.212C1412.28 554.091 1414.62 556.425 1417.51 556.425Z" fill="url(#paint4_linear_23249_3)"/>
</g>
<mask id="mask2_23249_3" style="mask-type:alpha" maskUnits="userSpaceOnUse" x="1442" y="546" width="12" height="11">
<path d="M1447.79 556.425C1450.68 556.425 1453.02 554.091 1453.02 551.212C1453.02 548.334 1450.68 546 1447.79 546C1444.9 546 1442.56 548.334 1442.56 551.212C1442.56 554.091 1444.9 556.425 1447.79 556.425Z" fill="url(#paint5_linear_23249_3)"/>
</mask>
<g mask="url(#mask2_23249_3)">
<path d="M1447.79 556.425C1450.68 556.425 1453.02 554.091 1453.02 551.212C1453.02 548.334 1450.68 546 1447.79 546C1444.9 546 1442.56 548.334 1442.56 551.212C1442.56 554.091 1444.9 556.425 1447.79 556.425Z" fill="url(#paint6_linear_23249_3)"/>
</g>
<mask id="mask3_23249_3" style="mask-type:alpha" maskUnits="userSpaceOnUse" x="1472" y="546" width="12" height="11">
<path d="M1478.07 556.425C1480.96 556.425 1483.3 554.091 1483.3 551.212C1483.3 548.334 1480.96 546 1478.07 546C1475.18 546 1472.84 548.334 1472.84 551.212C1472.84 554.091 1475.18 556.425 1478.07 556.425Z" fill="url(#paint7_linear_23249_3)"/>
</mask>
<g mask="url(#mask3_23249_3)">
<path d="M1478.07 556.425C1480.96 556.425 1483.3 554.091 1483.3 551.212C1483.3 548.334 1480.96 546 1478.07 546C1475.18 546 1472.84 548.334 1472.84 551.212C1472.84 554.091 1475.18 556.425 1478.07 556.425Z" fill="url(#paint8_linear_23249_3)"/>
</g>
<mask id="mask4_23249_3" style="mask-type:alpha" maskUnits="userSpaceOnUse" x="1503" y="546" width="11" height="11">
<path d="M1508.35 556.425C1511.24 556.425 1513.58 554.091 1513.58 551.212C1513.58 548.334 1511.24 546 1508.35 546C1505.47 546 1503.12 548.334 1503.12 551.212C1503.12 554.091 1505.47 556.425 1508.35 556.425Z" fill="url(#paint9_linear_23249_3)"/>
</mask>
<g mask="url(#mask4_23249_3)">
<path d="M1508.35 556.425C1511.24 556.425 1513.58 554.091 1513.58 551.212C1513.58 548.334 1511.24 546 1508.35 546C1505.47 546 1503.12 548.334 1503.12 551.212C1503.12 554.091 1505.47 556.425 1508.35 556.425Z" fill="url(#paint10_linear_23249_3)"/>
</g>
<mask id="mask5_23249_3" style="mask-type:alpha" maskUnits="userSpaceOnUse" x="1382" y="572" width="11" height="11">
<path d="M1387.23 582.596C1390.12 582.596 1392.46 580.262 1392.46 577.383C1392.46 574.505 1390.12 572.171 1387.23 572.171C1384.34 572.171 1382 574.505 1382 577.383C1382 580.262 1384.34 582.596 1387.23 582.596Z" fill="url(#paint11_linear_23249_3)"/>
</mask>
<g mask="url(#mask5_23249_3)">
<path d="M1387.23 582.596C1390.12 582.596 1392.46 580.262 1392.46 577.383C1392.46 574.505 1390.12 572.171 1387.23 572.171C1384.34 572.171 1382 574.505 1382 577.383C1382 580.262 1384.34 582.596 1387.23 582.596Z" fill="url(#paint12_linear_23249_3)"/>
</g>
<mask id="mask6_23249_3" style="mask-type:alpha" maskUnits="userSpaceOnUse" x="1412" y="572" width="11" height="11">
<path d="M1417.51 582.596C1420.4 582.596 1422.74 580.262 1422.74 577.383C1422.74 574.505 1420.4 572.171 1417.51 572.171C1414.62 572.171 1412.28 574.505 1412.28 577.383C1412.28 580.262 1414.62 582.596 1417.51 582.596Z" fill="url(#paint13_linear_23249_3)"/>
</mask>
<g mask="url(#mask6_23249_3)">
<path d="M1417.51 582.596C1420.4 582.596 1422.74 580.262 1422.74 577.383C1422.74 574.505 1420.4 572.171 1417.51 572.171C1414.62 572.171 1412.28 574.505 1412.28 577.383C1412.28 580.262 1414.62 582.596 1417.51 582.596Z" fill="url(#paint14_linear_23249_3)"/>
</g>
<mask id="mask7_23249_3" style="mask-type:alpha" maskUnits="userSpaceOnUse" x="1442" y="572" width="12" height="11">
<path d="M1447.79 582.596C1450.68 582.596 1453.02 580.262 1453.02 577.383C1453.02 574.505 1450.68 572.171 1447.79 572.171C1444.9 572.171 1442.56 574.505 1442.56 577.383C1442.56 580.262 1444.9 582.596 1447.79 582.596Z" fill="url(#paint15_linear_23249_3)"/>
</mask>
<g mask="url(#mask7_23249_3)">
<path d="M1447.79 582.596C1450.68 582.596 1453.02 580.262 1453.02 577.383C1453.02 574.505 1450.68 572.171 1447.79 572.171C1444.9 572.171 1442.56 574.505 1442.56 577.383C1442.56 580.262 1444.9 582.596 1447.79 582.596Z" fill="url(#paint16_linear_23249_3)"/>
</g>
<mask id="mask8_23249_3" style="mask-type:alpha" maskUnits="userSpaceOnUse" x="1472" y="572" width="12" height="11">
<path d="M1478.07 582.596C1480.96 582.596 1483.3 580.262 1483.3 577.383C1483.3 574.505 1480.96 572.171 1478.07 572.171C1475.18 572.171 1472.84 574.505 1472.84 577.383C1472.84 580.262 1475.18 582.596 1478.07 582.596Z" fill="url(#paint17_linear_23249_3)"/>
</mask>
<g mask="url(#mask8_23249_3)">
<path d="M1478.07 582.596C1480.96 582.596 1483.3 580.262 1483.3 577.383C1483.3 574.505 1480.96 572.171 1478.07 572.171C1475.18 572.171 1472.84 574.505 1472.84 577.383C1472.84 580.262 1475.18 582.596 1478.07 582.596Z" fill="url(#paint18_linear_23249_3)"/>
</g>
<mask id="mask9_23249_3" style="mask-type:alpha" maskUnits="userSpaceOnUse" x="1503" y="572" width="11" height="11">
<path d="M1508.35 582.596C1511.24 582.596 1513.58 580.262 1513.58 577.383C1513.58 574.505 1511.24 572.171 1508.35 572.171C1505.47 572.171 1503.12 574.505 1503.12 577.383C1503.12 580.262 1505.47 582.596 1508.35 582.596Z" fill="url(#paint19_linear_23249_3)"/>
</mask>
<g mask="url(#mask9_23249_3)">
<path d="M1508.35 582.596C1511.24 582.596 1513.58 580.262 1513.58 577.383C1513.58 574.505 1511.24 572.171 1508.35 572.171C1505.47 572.171 1503.12 574.505 1503.12 577.383C1503.12 580.262 1505.47 582.596 1508.35 582.596Z" fill="url(#paint20_linear_23249_3)"/>
</g>
<mask id="mask10_23249_3" style="mask-type:alpha" maskUnits="userSpaceOnUse" x="1382" y="598" width="11" height="11">
<path d="M1387.23 608.712C1390.12 608.712 1392.46 606.379 1392.46 603.5C1392.46 600.621 1390.12 598.287 1387.23 598.287C1384.34 598.287 1382 600.621 1382 603.5C1382 606.379 1384.34 608.712 1387.23 608.712Z" fill="url(#paint21_linear_23249_3)"/>
</mask>
<g mask="url(#mask10_23249_3)">
<path d="M1387.23 608.712C1390.12 608.712 1392.46 606.379 1392.46 603.5C1392.46 600.621 1390.12 598.287 1387.23 598.287C1384.34 598.287 1382 600.621 1382 603.5C1382 606.379 1384.34 608.712 1387.23 608.712Z" fill="url(#paint22_linear_23249_3)"/>
</g>
<mask id="mask11_23249_3" style="mask-type:alpha" maskUnits="userSpaceOnUse" x="1412" y="598" width="11" height="11">
<path d="M1417.51 608.712C1420.4 608.712 1422.74 606.379 1422.74 603.5C1422.74 600.621 1420.4 598.287 1417.51 598.287C1414.62 598.287 1412.28 600.621 1412.28 603.5C1412.28 606.379 1414.62 608.712 1417.51 608.712Z" fill="url(#paint23_linear_23249_3)"/>
</mask>
<g mask="url(#mask11_23249_3)">
<path d="M1417.51 608.712C1420.4 608.712 1422.74 606.379 1422.74 603.5C1422.74 600.621 1420.4 598.287 1417.51 598.287C1414.62 598.287 1412.28 600.621 1412.28 603.5C1412.28 606.379 1414.62 608.712 1417.51 608.712Z" fill="url(#paint24_linear_23249_3)"/>
</g>
<mask id="mask12_23249_3" style="mask-type:alpha" maskUnits="userSpaceOnUse" x="1442" y="598" width="12" height="11">
<path d="M1447.79 608.712C1450.68 608.712 1453.02 606.379 1453.02 603.5C1453.02 600.621 1450.68 598.287 1447.79 598.287C1444.9 598.287 1442.56 600.621 1442.56 603.5C1442.56 606.379 1444.9 608.712 1447.79 608.712Z" fill="url(#paint25_linear_23249_3)"/>
</mask>
<g mask="url(#mask12_23249_3)">
<path d="M1447.79 608.712C1450.68 608.712 1453.02 606.379 1453.02 603.5C1453.02 600.621 1450.68 598.287 1447.79 598.287C1444.9 598.287 1442.56 600.621 1442.56 603.5C1442.56 606.379 1444.9 608.712 1447.79 608.712Z" fill="url(#paint26_linear_23249_3)"/>
</g>
<mask id="mask13_23249_3" style="mask-type:alpha" maskUnits="userSpaceOnUse" x="1472" y="598" width="12" height="11">
<path d="M1478.07 608.712C1480.96 608.712 1483.3 606.379 1483.3 603.5C1483.3 600.621 1480.96 598.287 1478.07 598.287C1475.18 598.287 1472.84 600.621 1472.84 603.5C1472.84 606.379 1475.18 608.712 1478.07 608.712Z" fill="url(#paint27_linear_23249_3)"/>
</mask>
<g mask="url(#mask13_23249_3)">
<path d="M1478.07 608.712C1480.96 608.712 1483.3 606.379 1483.3 603.5C1483.3 600.621 1480.96 598.287 1478.07 598.287C1475.18 598.287 1472.84 600.621 1472.84 603.5C1472.84 606.379 1475.18 608.712 1478.07 608.712Z" fill="url(#paint28_linear_23249_3)"/>
</g>
<mask id="mask14_23249_3" style="mask-type:alpha" maskUnits="userSpaceOnUse" x="1503" y="598" width="11" height="11">
<path d="M1508.35 608.712C1511.24 608.712 1513.58 606.379 1513.58 603.5C1513.58 600.621 1511.24 598.287 1508.35 598.287C1505.47 598.287 1503.12 600.621 1503.12 603.5C1503.12 606.379 1505.47 608.712 1508.35 608.712Z" fill="url(#paint29_linear_23249_3)"/>
</mask>
<g mask="url(#mask14_23249_3)">
<path d="M1508.35 608.712C1511.24 608.712 1513.58 606.379 1513.58 603.5C1513.58 600.621 1511.24 598.287 1508.35 598.287C1505.47 598.287 1503.12 600.621 1503.12 603.5C1503.12 606.379 1505.47 608.712 1508.35 608.712Z" fill="url(#paint30_linear_23249_3)"/>
</g>
<mask id="mask15_23249_3" style="mask-type:alpha" maskUnits="userSpaceOnUse" x="1382" y="624" width="11" height="11">
<path d="M1387.23 634.883C1390.12 634.883 1392.46 632.55 1392.46 629.671C1392.46 626.792 1390.12 624.458 1387.23 624.458C1384.34 624.458 1382 626.792 1382 629.671C1382 632.55 1384.34 634.883 1387.23 634.883Z" fill="url(#paint31_linear_23249_3)"/>
</mask>
<g mask="url(#mask15_23249_3)">
<path d="M1387.23 634.883C1390.12 634.883 1392.46 632.55 1392.46 629.671C1392.46 626.792 1390.12 624.458 1387.23 624.458C1384.34 624.458 1382 626.792 1382 629.671C1382 632.55 1384.34 634.883 1387.23 634.883Z" fill="url(#paint32_linear_23249_3)"/>
</g>
<mask id="mask16_23249_3" style="mask-type:alpha" maskUnits="userSpaceOnUse" x="1412" y="624" width="11" height="11">
<path d="M1417.51 634.883C1420.4 634.883 1422.74 632.55 1422.74 629.671C1422.74 626.792 1420.4 624.458 1417.51 624.458C1414.62 624.458 1412.28 626.792 1412.28 629.671C1412.28 632.55 1414.62 634.883 1417.51 634.883Z" fill="url(#paint33_linear_23249_3)"/>
</mask>
<g mask="url(#mask16_23249_3)">
<path d="M1417.51 634.883C1420.4 634.883 1422.74 632.55 1422.74 629.671C1422.74 626.792 1420.4 624.458 1417.51 624.458C1414.62 624.458 1412.28 626.792 1412.28 629.671C1412.28 632.55 1414.62 634.883 1417.51 634.883Z" fill="url(#paint34_linear_23249_3)"/>
</g>
<mask id="mask17_23249_3" style="mask-type:alpha" maskUnits="userSpaceOnUse" x="1442" y="624" width="12" height="11">
<path d="M1447.79 634.883C1450.68 634.883 1453.02 632.55 1453.02 629.671C1453.02 626.792 1450.68 624.458 1447.79 624.458C1444.9 624.458 1442.56 626.792 1442.56 629.671C1442.56 632.55 1444.9 634.883 1447.79 634.883Z" fill="url(#paint35_linear_23249_3)"/>
</mask>
<g mask="url(#mask17_23249_3)">
<path d="M1447.79 634.883C1450.68 634.883 1453.02 632.55 1453.02 629.671C1453.02 626.792 1450.68 624.458 1447.79 624.458C1444.9 624.458 1442.56 626.792 1442.56 629.671C1442.56 632.55 1444.9 634.883 1447.79 634.883Z" fill="url(#paint36_linear_23249_3)"/>
</g>
<mask id="mask18_23249_3" style="mask-type:alpha" maskUnits="userSpaceOnUse" x="1472" y="624" width="12" height="11">
<path d="M1478.07 634.883C1480.96 634.883 1483.3 632.55 1483.3 629.671C1483.3 626.792 1480.96 624.458 1478.07 624.458C1475.18 624.458 1472.84 626.792 1472.84 629.671C1472.84 632.55 1475.18 634.883 1478.07 634.883Z" fill="url(#paint37_linear_23249_3)"/>
</mask>
<g mask="url(#mask18_23249_3)">
<path d="M1478.07 634.883C1480.96 634.883 1483.3 632.55 1483.3 629.671C1483.3 626.792 1480.96 624.458 1478.07 624.458C1475.18 624.458 1472.84 626.792 1472.84 629.671C1472.84 632.55 1475.18 634.883 1478.07 634.883Z" fill="url(#paint38_linear_23249_3)"/>
</g>
<mask id="mask19_23249_3" style="mask-type:alpha" maskUnits="userSpaceOnUse" x="1503" y="624" width="11" height="11">
<path d="M1508.35 634.883C1511.24 634.883 1513.58 632.55 1513.58 629.671C1513.58 626.792 1511.24 624.458 1508.35 624.458C1505.47 624.458 1503.12 626.792 1503.12 629.671C1503.12 632.55 1505.47 634.883 1508.35 634.883Z" fill="url(#paint39_linear_23249_3)"/>
</mask>
<g mask="url(#mask19_23249_3)">
<path d="M1508.35 634.883C1511.24 634.883 1513.58 632.55 1513.58 629.671C1513.58 626.792 1511.24 624.458 1508.35 624.458C1505.47 624.458 1503.12 626.792 1503.12 629.671C1503.12 632.55 1505.47 634.883 1508.35 634.883Z" fill="url(#paint40_linear_23249_3)"/>
</g>
<mask id="mask20_23249_3" style="mask-type:alpha" maskUnits="userSpaceOnUse" x="1382" y="650" width="11" height="11">
<path d="M1387.23 661C1390.12 661 1392.46 658.666 1392.46 655.788C1392.46 652.909 1390.12 650.575 1387.23 650.575C1384.34 650.575 1382 652.909 1382 655.788C1382 658.666 1384.34 661 1387.23 661Z" fill="url(#paint41_linear_23249_3)"/>
</mask>
<g mask="url(#mask20_23249_3)">
<path d="M1387.23 661C1390.12 661 1392.46 658.666 1392.46 655.788C1392.46 652.909 1390.12 650.575 1387.23 650.575C1384.34 650.575 1382 652.909 1382 655.788C1382 658.666 1384.34 661 1387.23 661Z" fill="url(#paint42_linear_23249_3)"/>
</g>
<mask id="mask21_23249_3" style="mask-type:alpha" maskUnits="userSpaceOnUse" x="1412" y="650" width="11" height="11">
<path d="M1417.51 661C1420.4 661 1422.74 658.666 1422.74 655.788C1422.74 652.909 1420.4 650.575 1417.51 650.575C1414.62 650.575 1412.28 652.909 1412.28 655.788C1412.28 658.666 1414.62 661 1417.51 661Z" fill="url(#paint43_linear_23249_3)"/>
</mask>
<g mask="url(#mask21_23249_3)">
<path d="M1417.51 661C1420.4 661 1422.74 658.666 1422.74 655.788C1422.74 652.909 1420.4 650.575 1417.51 650.575C1414.62 650.575 1412.28 652.909 1412.28 655.788C1412.28 658.666 1414.62 661 1417.51 661Z" fill="url(#paint44_linear_23249_3)"/>
</g>
<mask id="mask22_23249_3" style="mask-type:alpha" maskUnits="userSpaceOnUse" x="1442" y="650" width="12" height="11">
<path d="M1447.79 661C1450.68 661 1453.02 658.666 1453.02 655.788C1453.02 652.909 1450.68 650.575 1447.79 650.575C1444.9 650.575 1442.56 652.909 1442.56 655.788C1442.56 658.666 1444.9 661 1447.79 661Z" fill="url(#paint45_linear_23249_3)"/>
</mask>
<g mask="url(#mask22_23249_3)">
<path d="M1447.79 661C1450.68 661 1453.02 658.666 1453.02 655.788C1453.02 652.909 1450.68 650.575 1447.79 650.575C1444.9 650.575 1442.56 652.909 1442.56 655.788C1442.56 658.666 1444.9 661 1447.79 661Z" fill="url(#paint46_linear_23249_3)"/>
</g>
<mask id="mask23_23249_3" style="mask-type:alpha" maskUnits="userSpaceOnUse" x="1472" y="650" width="12" height="11">
<path d="M1478.07 661C1480.96 661 1483.3 658.666 1483.3 655.788C1483.3 652.909 1480.96 650.575 1478.07 650.575C1475.18 650.575 1472.84 652.909 1472.84 655.788C1472.84 658.666 1475.18 661 1478.07 661Z" fill="url(#paint47_linear_23249_3)"/>
</mask>
<g mask="url(#mask23_23249_3)">
<path d="M1478.07 661C1480.96 661 1483.3 658.666 1483.3 655.788C1483.3 652.909 1480.96 650.575 1478.07 650.575C1475.18 650.575 1472.84 652.909 1472.84 655.788C1472.84 658.666 1475.18 661 1478.07 661Z" fill="url(#paint48_linear_23249_3)"/>
</g>
<mask id="mask24_23249_3" style="mask-type:alpha" maskUnits="userSpaceOnUse" x="1503" y="650" width="11" height="11">
<path d="M1508.35 661C1511.24 661 1513.58 658.666 1513.58 655.788C1513.58 652.909 1511.24 650.575 1508.35 650.575C1505.47 650.575 1503.12 652.909 1503.12 655.788C1503.12 658.666 1505.47 661 1508.35 661Z" fill="url(#paint49_linear_23249_3)"/>
</mask>
<g mask="url(#mask24_23249_3)">
<path d="M1508.35 661C1511.24 661 1513.58 658.666 1513.58 655.788C1513.58 652.909 1511.24 650.575 1508.35 650.575C1505.47 650.575 1503.12 652.909 1503.12 655.788C1503.12 658.666 1505.47 661 1508.35 661Z" fill="url(#paint50_linear_23249_3)"/>
</g>
</g>
<defs>
<linearGradient id="paint0_linear_23249_3" x1="533.823" y1="69.8268" x2="299.583" y2="775.635" gradientUnits="userSpaceOnUse">
<stop stop-color="#F3F7FF"/>
<stop offset="1" stop-color="#DEEEFE"/>
</linearGradient>
<linearGradient id="paint1_linear_23249_3" x1="1437" y1="677.134" x2="1365.59" y2="495.33" gradientUnits="userSpaceOnUse">
<stop/>
<stop offset="1" stop-color="white"/>
</linearGradient>
<linearGradient id="paint2_linear_23249_3" x1="1437" y1="677.134" x2="1365.59" y2="495.33" gradientUnits="userSpaceOnUse">
<stop stop-color="#97C3F9"/>
<stop offset="1" stop-color="#93C1F9"/>
</linearGradient>
<linearGradient id="paint3_linear_23249_3" x1="1463.2" y1="666.843" x2="1391.8" y2="485.039" gradientUnits="userSpaceOnUse">
<stop/>
<stop offset="1" stop-color="white"/>
</linearGradient>
<linearGradient id="paint4_linear_23249_3" x1="1463.2" y1="666.843" x2="1391.8" y2="485.039" gradientUnits="userSpaceOnUse">
<stop stop-color="#97C3F9"/>
<stop offset="1" stop-color="#93C1F9"/>
</linearGradient>
<linearGradient id="paint5_linear_23249_3" x1="1489.4" y1="656.551" x2="1418" y2="474.747" gradientUnits="userSpaceOnUse">
<stop/>
<stop offset="1" stop-color="white"/>
</linearGradient>
<linearGradient id="paint6_linear_23249_3" x1="1489.4" y1="656.551" x2="1418" y2="474.747" gradientUnits="userSpaceOnUse">
<stop stop-color="#97C3F9"/>
<stop offset="1" stop-color="#93C1F9"/>
</linearGradient>
<linearGradient id="paint7_linear_23249_3" x1="1515.61" y1="646.259" x2="1444.21" y2="464.456" gradientUnits="userSpaceOnUse">
<stop/>
<stop offset="1" stop-color="white"/>
</linearGradient>
<linearGradient id="paint8_linear_23249_3" x1="1515.61" y1="646.259" x2="1444.21" y2="464.456" gradientUnits="userSpaceOnUse">
<stop stop-color="#97C3F9"/>
<stop offset="1" stop-color="#93C1F9"/>
</linearGradient>
<linearGradient id="paint9_linear_23249_3" x1="1541.81" y1="635.968" x2="1470.41" y2="454.164" gradientUnits="userSpaceOnUse">
<stop/>
<stop offset="1" stop-color="white"/>
</linearGradient>
<linearGradient id="paint10_linear_23249_3" x1="1541.81" y1="635.968" x2="1470.41" y2="454.164" gradientUnits="userSpaceOnUse">
<stop stop-color="#97C3F9"/>
<stop offset="1" stop-color="#93C1F9"/>
</linearGradient>
<linearGradient id="paint11_linear_23249_3" x1="1428.05" y1="680.645" x2="1356.65" y2="498.843" gradientUnits="userSpaceOnUse">
<stop/>
<stop offset="1" stop-color="white"/>
</linearGradient>
<linearGradient id="paint12_linear_23249_3" x1="1428.05" y1="680.645" x2="1356.65" y2="498.843" gradientUnits="userSpaceOnUse">
<stop stop-color="#97C3F9"/>
<stop offset="1" stop-color="#93C1F9"/>
</linearGradient>
<linearGradient id="paint13_linear_23249_3" x1="1454.26" y1="670.354" x2="1382.86" y2="488.551" gradientUnits="userSpaceOnUse">
<stop/>
<stop offset="1" stop-color="white"/>
</linearGradient>
<linearGradient id="paint14_linear_23249_3" x1="1454.26" y1="670.354" x2="1382.86" y2="488.551" gradientUnits="userSpaceOnUse">
<stop stop-color="#97C3F9"/>
<stop offset="1" stop-color="#93C1F9"/>
</linearGradient>
<linearGradient id="paint15_linear_23249_3" x1="1480.46" y1="660.062" x2="1409.06" y2="478.26" gradientUnits="userSpaceOnUse">
<stop/>
<stop offset="1" stop-color="white"/>
</linearGradient>
<linearGradient id="paint16_linear_23249_3" x1="1480.46" y1="660.062" x2="1409.06" y2="478.26" gradientUnits="userSpaceOnUse">
<stop stop-color="#97C3F9"/>
<stop offset="1" stop-color="#93C1F9"/>
</linearGradient>
<linearGradient id="paint17_linear_23249_3" x1="1506.67" y1="649.771" x2="1435.27" y2="467.968" gradientUnits="userSpaceOnUse">
<stop/>
<stop offset="1" stop-color="white"/>
</linearGradient>
<linearGradient id="paint18_linear_23249_3" x1="1506.67" y1="649.771" x2="1435.27" y2="467.968" gradientUnits="userSpaceOnUse">
<stop stop-color="#97C3F9"/>
<stop offset="1" stop-color="#93C1F9"/>
</linearGradient>
<linearGradient id="paint19_linear_23249_3" x1="1532.87" y1="639.479" x2="1461.47" y2="457.677" gradientUnits="userSpaceOnUse">
<stop/>
<stop offset="1" stop-color="white"/>
</linearGradient>
<linearGradient id="paint20_linear_23249_3" x1="1532.87" y1="639.479" x2="1461.47" y2="457.677" gradientUnits="userSpaceOnUse">
<stop stop-color="#97C3F9"/>
<stop offset="1" stop-color="#93C1F9"/>
</linearGradient>
<linearGradient id="paint21_linear_23249_3" x1="1419.11" y1="684.158" x2="1347.71" y2="502.354" gradientUnits="userSpaceOnUse">
<stop/>
<stop offset="1" stop-color="white"/>
</linearGradient>
<linearGradient id="paint22_linear_23249_3" x1="1419.11" y1="684.158" x2="1347.71" y2="502.354" gradientUnits="userSpaceOnUse">
<stop stop-color="#97C3F9"/>
<stop offset="1" stop-color="#93C1F9"/>
</linearGradient>
<linearGradient id="paint23_linear_23249_3" x1="1445.32" y1="673.866" x2="1373.91" y2="492.063" gradientUnits="userSpaceOnUse">
<stop/>
<stop offset="1" stop-color="white"/>
</linearGradient>
<linearGradient id="paint24_linear_23249_3" x1="1445.32" y1="673.866" x2="1373.91" y2="492.063" gradientUnits="userSpaceOnUse">
<stop stop-color="#97C3F9"/>
<stop offset="1" stop-color="#93C1F9"/>
</linearGradient>
<linearGradient id="paint25_linear_23249_3" x1="1471.52" y1="663.575" x2="1400.12" y2="481.771" gradientUnits="userSpaceOnUse">
<stop/>
<stop offset="1" stop-color="white"/>
</linearGradient>
<linearGradient id="paint26_linear_23249_3" x1="1471.52" y1="663.575" x2="1400.12" y2="481.771" gradientUnits="userSpaceOnUse">
<stop stop-color="#97C3F9"/>
<stop offset="1" stop-color="#93C1F9"/>
</linearGradient>
<linearGradient id="paint27_linear_23249_3" x1="1497.72" y1="653.283" x2="1426.32" y2="471.48" gradientUnits="userSpaceOnUse">
<stop/>
<stop offset="1" stop-color="white"/>
</linearGradient>
<linearGradient id="paint28_linear_23249_3" x1="1497.72" y1="653.283" x2="1426.32" y2="471.48" gradientUnits="userSpaceOnUse">
<stop stop-color="#97C3F9"/>
<stop offset="1" stop-color="#93C1F9"/>
</linearGradient>
<linearGradient id="paint29_linear_23249_3" x1="1523.93" y1="642.992" x2="1452.53" y2="461.188" gradientUnits="userSpaceOnUse">
<stop/>
<stop offset="1" stop-color="white"/>
</linearGradient>
<linearGradient id="paint30_linear_23249_3" x1="1523.93" y1="642.992" x2="1452.53" y2="461.188" gradientUnits="userSpaceOnUse">
<stop stop-color="#97C3F9"/>
<stop offset="1" stop-color="#93C1F9"/>
</linearGradient>
<linearGradient id="paint31_linear_23249_3" x1="1410.17" y1="687.67" x2="1338.77" y2="505.866" gradientUnits="userSpaceOnUse">
<stop/>
<stop offset="1" stop-color="white"/>
</linearGradient>
<linearGradient id="paint32_linear_23249_3" x1="1410.17" y1="687.67" x2="1338.77" y2="505.866" gradientUnits="userSpaceOnUse">
<stop stop-color="#97C3F9"/>
<stop offset="1" stop-color="#93C1F9"/>
</linearGradient>
<linearGradient id="paint33_linear_23249_3" x1="1436.37" y1="677.378" x2="1364.97" y2="495.575" gradientUnits="userSpaceOnUse">
<stop/>
<stop offset="1" stop-color="white"/>
</linearGradient>
<linearGradient id="paint34_linear_23249_3" x1="1436.37" y1="677.378" x2="1364.97" y2="495.575" gradientUnits="userSpaceOnUse">
<stop stop-color="#97C3F9"/>
<stop offset="1" stop-color="#93C1F9"/>
</linearGradient>
<linearGradient id="paint35_linear_23249_3" x1="1462.58" y1="667.087" x2="1391.18" y2="485.283" gradientUnits="userSpaceOnUse">
<stop/>
<stop offset="1" stop-color="white"/>
</linearGradient>
<linearGradient id="paint36_linear_23249_3" x1="1462.58" y1="667.087" x2="1391.18" y2="485.283" gradientUnits="userSpaceOnUse">
<stop stop-color="#97C3F9"/>
<stop offset="1" stop-color="#93C1F9"/>
</linearGradient>
<linearGradient id="paint37_linear_23249_3" x1="1488.78" y1="656.795" x2="1417.38" y2="474.992" gradientUnits="userSpaceOnUse">
<stop/>
<stop offset="1" stop-color="white"/>
</linearGradient>
<linearGradient id="paint38_linear_23249_3" x1="1488.78" y1="656.795" x2="1417.38" y2="474.992" gradientUnits="userSpaceOnUse">
<stop stop-color="#97C3F9"/>
<stop offset="1" stop-color="#93C1F9"/>
</linearGradient>
<linearGradient id="paint39_linear_23249_3" x1="1514.99" y1="646.504" x2="1443.58" y2="464.7" gradientUnits="userSpaceOnUse">
<stop/>
<stop offset="1" stop-color="white"/>
</linearGradient>
<linearGradient id="paint40_linear_23249_3" x1="1514.99" y1="646.504" x2="1443.58" y2="464.7" gradientUnits="userSpaceOnUse">
<stop stop-color="#97C3F9"/>
<stop offset="1" stop-color="#93C1F9"/>
</linearGradient>
<linearGradient id="paint41_linear_23249_3" x1="1401.23" y1="691.182" x2="1329.82" y2="509.378" gradientUnits="userSpaceOnUse">
<stop/>
<stop offset="1" stop-color="white"/>
</linearGradient>
<linearGradient id="paint42_linear_23249_3" x1="1401.23" y1="691.182" x2="1329.82" y2="509.378" gradientUnits="userSpaceOnUse">
<stop stop-color="#97C3F9"/>
<stop offset="1" stop-color="#93C1F9"/>
</linearGradient>
<linearGradient id="paint43_linear_23249_3" x1="1427.43" y1="680.89" x2="1356.03" y2="499.087" gradientUnits="userSpaceOnUse">
<stop/>
<stop offset="1" stop-color="white"/>
</linearGradient>
<linearGradient id="paint44_linear_23249_3" x1="1427.43" y1="680.89" x2="1356.03" y2="499.087" gradientUnits="userSpaceOnUse">
<stop stop-color="#97C3F9"/>
<stop offset="1" stop-color="#93C1F9"/>
</linearGradient>
<linearGradient id="paint45_linear_23249_3" x1="1453.64" y1="670.599" x2="1382.23" y2="488.795" gradientUnits="userSpaceOnUse">
<stop/>
<stop offset="1" stop-color="white"/>
</linearGradient>
<linearGradient id="paint46_linear_23249_3" x1="1453.64" y1="670.599" x2="1382.23" y2="488.795" gradientUnits="userSpaceOnUse">
<stop stop-color="#97C3F9"/>
<stop offset="1" stop-color="#93C1F9"/>
</linearGradient>
<linearGradient id="paint47_linear_23249_3" x1="1479.84" y1="660.307" x2="1408.44" y2="478.504" gradientUnits="userSpaceOnUse">
<stop/>
<stop offset="1" stop-color="white"/>
</linearGradient>
<linearGradient id="paint48_linear_23249_3" x1="1479.84" y1="660.307" x2="1408.44" y2="478.504" gradientUnits="userSpaceOnUse">
<stop stop-color="#97C3F9"/>
<stop offset="1" stop-color="#93C1F9"/>
</linearGradient>
<linearGradient id="paint49_linear_23249_3" x1="1506.04" y1="650.016" x2="1434.64" y2="468.212" gradientUnits="userSpaceOnUse">
<stop/>
<stop offset="1" stop-color="white"/>
</linearGradient>
<linearGradient id="paint50_linear_23249_3" x1="1506.04" y1="650.016" x2="1434.64" y2="468.212" gradientUnits="userSpaceOnUse">
<stop stop-color="#97C3F9"/>
<stop offset="1" stop-color="#93C1F9"/>
</linearGradient>
</defs>
</svg>
